<mxfile host="fe7b5793-7b6f-4704-8835-3fc2e1e80a0f" modified="2021-02-01T10:57:50.513Z" agent="5.0 (Windows NT 6.1; Win64; x64) AppleWebKit/537.36 (KHTML, like Gecko) Code/1.47.3 Chrome/78.0.3904.130 Electron/7.3.2 Safari/537.36" etag="rG1IAa6sKKqWKh3Kv70t" version="13.1.3">
    <diagram id="C5FJiO6h4hiAykJ9ikmt" name="Docker">
        <mxGraphModel dx="822" dy="480" grid="1" gridSize="10" guides="1" tooltips="1" connect="1" arrows="1" fold="1" page="1" pageScale="1" pageWidth="827" pageHeight="1169" math="0" shadow="0">
            <root>
                <mxCell id="DPAlbouY73jpOpNum-eA-0"/>
                <mxCell id="DPAlbouY73jpOpNum-eA-1" parent="DPAlbouY73jpOpNum-eA-0"/>
                <mxCell id="aN2RLUg1Zt1sxOG1Xt9F-0" value="&lt;table cellpadding=&quot;4&quot; cellspacing=&quot;0&quot; border=&quot;1&quot; style=&quot;font-size: 1em ; width: 100% ; height: 100%&quot;&gt;&lt;tbody&gt;&lt;tr&gt;&lt;th&gt;Type&lt;/th&gt;&lt;th&gt;Contents&lt;/th&gt;&lt;/tr&gt;&lt;tr&gt;&lt;td&gt;install from repo&lt;/td&gt;&lt;td&gt;&lt;h3&gt;install&lt;/h3&gt;&lt;font face=&quot;Courier New&quot;&gt;sudo yum install yum-utils device-mapper-persistent-data lvm2&lt;br&gt;sudo yum-config-manager --add-repo https://download.docker.com/linux/centos/docker-ce.repo&lt;br&gt;sudo yum install docker-ce&lt;br&gt;&lt;/font&gt;&lt;h3&gt;config&lt;/h3&gt;&lt;h4&gt;1. daemon.json&lt;/h4&gt;&lt;div&gt;&lt;font face=&quot;Courier New&quot;&gt;mkdir -p /etc/docker&lt;br&gt;&lt;/font&gt;&lt;/div&gt;&lt;div&gt;&lt;font face=&quot;Courier New&quot;&gt;cp daemon.json /etc/docker/&lt;br&gt;&lt;/font&gt;&lt;/div&gt;&lt;div&gt;&lt;font face=&quot;Courier New&quot;&gt;chmod 600 /etc/docker/daemon.json&lt;/font&gt;&lt;/div&gt;&lt;h4&gt;2. override.conf&lt;/h4&gt;&lt;div&gt;&lt;span style=&quot;font-family: &amp;#34;courier new&amp;#34; ; font-size: 1em&quot;&gt;sudo cp override.conf /etc/systemd/system/docker.service.d // or&amp;nbsp;&lt;/span&gt;&lt;span&gt;&lt;font face=&quot;courier new&quot;&gt;systemctl edit docker.service&lt;/font&gt;&lt;/span&gt;&lt;br&gt;&lt;/div&gt;&lt;div&gt;&lt;font face=&quot;Courier New&quot;&gt;sudo systemctl daemon-reload&lt;br&gt;&lt;/font&gt;&lt;/div&gt;&lt;div&gt;&lt;font face=&quot;Courier New&quot;&gt;sudo systemctl restart docker&lt;/font&gt;&lt;/div&gt;&lt;h4&gt;2. start&lt;/h4&gt;&lt;div&gt;sudo systemctl start docker&lt;br&gt;&lt;/div&gt;&lt;/td&gt;&lt;/tr&gt;&lt;tr&gt;&lt;td&gt;daemon.json&lt;/td&gt;&lt;td&gt;&lt;font face=&quot;Courier New&quot;&gt;{&lt;br&gt;&amp;nbsp;&amp;nbsp;&quot;bip&quot;: &quot;192.168.188.1/24&quot;&lt;br&gt;}&lt;/font&gt;&lt;/td&gt;&lt;/tr&gt;&lt;tr&gt;&lt;td&gt;override.conf&lt;/td&gt;&lt;td&gt;&lt;font face=&quot;Courier New&quot;&gt;[Service]&lt;br&gt;ExecStart=&lt;br&gt;ExecStart=/usr/bin/dockerd -H unix:// -H tcp://127.0.0.1:2375&lt;/font&gt;&lt;br&gt;&lt;/td&gt;&lt;/tr&gt;&lt;tr&gt;&lt;td&gt;shinyproxy&lt;/td&gt;&lt;td&gt;&lt;h3&gt;install&lt;/h3&gt;&lt;div&gt;&lt;font face=&quot;Courier New&quot;&gt;SHINYPROXY_VERSION = 2.1.0&lt;br&gt;&lt;/font&gt;&lt;/div&gt;&lt;div&gt;&lt;font face=&quot;Courier New&quot;&gt;wget https://www.shinyproxy.io/downloads/shinyproxy-${SHINYPROXY_VERSION}.jar&lt;/font&gt;&lt;br&gt;&lt;/div&gt;&lt;div&gt;&lt;font face=&quot;Courier New&quot;&gt;&lt;br&gt;&lt;/font&gt;&lt;/div&gt;&lt;h3&gt;config&lt;/h3&gt;&lt;h4&gt;1. start&lt;/h4&gt;&lt;div&gt;java -jar shinyproxy-${SHINYPROXY_VERSION}.jar&lt;br&gt;&lt;/div&gt;&lt;h4&gt;2. update&lt;/h4&gt;&lt;div&gt;&lt;font face=&quot;Courier New&quot;&gt;jar -uf0 shinyproxy-${SHINYPROXY_VERSION}.jar BOOT-INF&lt;/font&gt;&lt;br&gt;&lt;/div&gt;&lt;/td&gt;&lt;/tr&gt;&lt;tr&gt;&lt;td&gt;shinyproxy localization&lt;br&gt;&lt;/td&gt;&lt;td&gt;&lt;h3&gt;&lt;font face=&quot;Courier New&quot;&gt;shinyproxy/BOOT-INF/lib/containerproxy...jar::templates/login.html&lt;/font&gt;&lt;/h3&gt;&lt;font face=&quot;Courier New&quot;&gt;&quot;Please sign in:&quot; -&amp;gt; &quot;请登录: &quot; or give it a blank value&lt;br&gt;placeholder=&quot;User name&quot; -&amp;gt; &quot;用户名&quot;&lt;br&gt;placeholder=&quot;Password&quot; -&amp;gt; &quot;密码&quot;&lt;br&gt;&quot;Sign in&quot; -&amp;gt; &quot;登录&quot;&lt;br&gt;&quot;&amp;lt;strong&amp;gt;Could not sign in!&amp;lt;/strong&amp;gt;&amp;lt;br&amp;gt;&amp;lt;span th:text=&quot;${error}&quot;&amp;gt;&amp;lt;/span&amp;gt;&quot;&lt;br&gt;&quot;&amp;lt;strong&amp;gt;无法登陆!&amp;lt;/strong&amp;gt;&amp;lt;br&amp;gt;&amp;lt;span th:text=&quot;用户名或密码无效&quot;&amp;gt;&amp;lt;/span&amp;gt;&quot;&lt;br&gt;&lt;/font&gt;&lt;h3&gt;&lt;font face=&quot;Courier New&quot;&gt;shinyproxy/BOOT/-INF/classes/fragments/navbar.html&lt;/font&gt;&lt;/h3&gt;&lt;font face=&quot;Courier New&quot;&gt;&quot;Admin&quot; -&amp;gt; &quot;管理员&quot;&lt;br&gt;&quot;Sign Out&quot; -&amp;gt; &quot;退出&quot;&lt;br&gt;&lt;/font&gt;&lt;h3&gt;&lt;font face=&quot;Courier New&quot;&gt;shinyproxy/BOOT/-INF/classes/templates/app.html&lt;/font&gt;&lt;/h3&gt;&lt;font face=&quot;Courier New&quot;&gt;Launching -&amp;gt; &quot;正在加载&quot;&lt;/font&gt;&lt;br&gt;&lt;/td&gt;&lt;/tr&gt;&lt;tr&gt;&lt;td&gt;Images&lt;/td&gt;&lt;td&gt;&lt;h3&gt;R&lt;/h3&gt;&lt;font face=&quot;Courier New&quot;&gt;FROM conoria/alpine-r-bookdown&lt;br&gt;RUN R -q -e 'bookdown::render_book(&quot;index.Rmd&quot;, &quot;bookdown::gitbook&quot;)' &amp;amp;&amp;amp; mv _book /public&lt;/font&gt;&lt;br&gt;&lt;/td&gt;&lt;/tr&gt;&lt;/tbody&gt;&lt;/table&gt; " style="verticalAlign=top;align=left;overflow=fill;fontSize=12;fontFamily=Helvetica;html=1" parent="DPAlbouY73jpOpNum-eA-1" vertex="1">
                    <mxGeometry x="10" y="10" width="810" height="1130" as="geometry"/>
                </mxCell>
            </root>
        </mxGraphModel>
    </diagram>
</mxfile>
